<svg width="250" height="250" viewBox="0 0 250 250" fill="none" xmlns="http://www.w3.org/2000/svg">
<path d="M74.7222 32.0632C73.9137 49.8421 76.2442 90.0778 92.0346 108.789L107.992 108.304C108.629 66.6331 109.386 53.9801 104.553 46.5677C99.5353 40.0299 89.3009 35.3745 74.7222 32.0632Z" fill="#2DDD73"/>
<path d="M74.7222 32.0632C73.9137 49.8421 76.2442 90.0778 92.0346 108.789L107.992 108.304C108.629 66.6331 109.386 53.9801 104.553 46.5677C99.5353 40.0299 89.3009 35.3745 74.7222 32.0632Z" fill="url(#paint0_linear_31_34)" fill-opacity="0.2"/>
<path d="M74.7222 32.0632C73.9137 49.8421 76.2442 90.0778 92.0346 108.789L107.992 108.304C108.629 66.6331 109.386 53.9801 104.553 46.5677C99.5353 40.0299 89.3009 35.3745 74.7222 32.0632Z" fill="url(#paint1_linear_31_34)"/>
<path d="M74.7222 32.0632C73.9137 49.8421 76.2442 90.0778 92.0346 108.789L107.992 108.304C108.629 66.6331 109.386 53.9801 104.553 46.5677C99.5353 40.0299 89.3009 35.3745 74.7222 32.0632Z" fill="url(#paint2_linear_31_34)"/>
<path d="M41.2548 60.8504C50.8774 75.822 76.0484 107.298 99.7514 113.431L112.489 103.806C88.9092 69.4428 82.2087 58.6829 73.979 55.4311C66.1048 52.9993 55.0631 55.1203 41.2548 60.8504Z" fill="#2DDD73"/>
<path d="M41.2548 60.8504C50.8774 75.822 76.0484 107.298 99.7514 113.431L112.489 103.806C88.9092 69.4428 82.2087 58.6829 73.979 55.4311C66.1048 52.9993 55.0631 55.1203 41.2548 60.8504Z" fill="url(#paint3_linear_31_34)"/>
<path d="M41.2548 60.8504C50.8774 75.822 76.0484 107.298 99.7514 113.431L112.489 103.806C88.9092 69.4428 82.2087 58.6829 73.979 55.4311C66.1048 52.9993 55.0631 55.1203 41.2548 60.8504Z" fill="url(#paint4_linear_31_34)" fill-opacity="0.2"/>
<rect x="134.856" width="115.827" height="115.827" rx="15" transform="rotate(20 134.856 0)" fill="#5F62FF"/>
<rect x="134.856" width="115.827" height="115.827" rx="15" transform="rotate(20 134.856 0)" fill="black" fill-opacity="0.05"/>
<rect x="134.856" width="115.827" height="115.827" rx="15" transform="rotate(20 134.856 0)" fill="url(#paint5_linear_31_34)" fill-opacity="0.06"/>
<rect x="134.856" width="115.827" height="115.827" rx="15" transform="rotate(20 134.856 0)" fill="url(#paint6_linear_31_34)" fill-opacity="0.06"/>
<path d="M73.4526 88.3934C87.1129 84.7332 93.943 82.903 99.3238 86.0096C104.705 89.1162 106.535 95.9464 110.195 109.607L120.423 147.779C124.084 161.439 125.914 168.27 122.807 173.65C119.7 179.031 112.87 180.861 99.2101 184.521L61.0376 194.75C47.3773 198.41 40.5472 200.24 35.1664 197.134C29.7856 194.027 27.9555 187.197 24.2952 173.537L14.0669 135.364C10.4067 121.704 8.57654 114.874 11.6831 109.493C14.7897 104.112 21.6199 102.282 35.2801 98.6217L73.4526 88.3934Z" fill="#5F62FF"/>
<path d="M73.4526 88.3934C87.1129 84.7332 93.943 82.903 99.3238 86.0096C104.705 89.1162 106.535 95.9464 110.195 109.607L120.423 147.779C124.084 161.439 125.914 168.27 122.807 173.65C119.7 179.031 112.87 180.861 99.2101 184.521L61.0376 194.75C47.3773 198.41 40.5472 200.24 35.1664 197.134C29.7856 194.027 27.9555 187.197 24.2952 173.537L14.0669 135.364C10.4067 121.704 8.57654 114.874 11.6831 109.493C14.7897 104.112 21.6199 102.282 35.2801 98.6217L73.4526 88.3934Z" fill="black" fill-opacity="0.03"/>
<path d="M73.4526 88.3934C87.1129 84.7332 93.943 82.903 99.3238 86.0096C104.705 89.1162 106.535 95.9464 110.195 109.607L120.423 147.779C124.084 161.439 125.914 168.27 122.807 173.65C119.7 179.031 112.87 180.861 99.2101 184.521L61.0376 194.75C47.3773 198.41 40.5472 200.24 35.1664 197.134C29.7856 194.027 27.9555 187.197 24.2952 173.537L14.0669 135.364C10.4067 121.704 8.57654 114.874 11.6831 109.493C14.7897 104.112 21.6199 102.282 35.2801 98.6217L73.4526 88.3934Z" fill="url(#paint7_linear_31_34)" fill-opacity="0.06"/>
<rect x="106.116" y="88.295" width="132.032" height="132.032" rx="15" transform="rotate(15 106.116 88.295)" fill="#5F62FF"/>
<rect x="186.857" y="125.458" width="30" height="30" rx="5" transform="rotate(26.25 186.857 125.458)" fill="white"/>
<defs>
<linearGradient id="paint0_linear_31_34" x1="108.66" y1="96.404" x2="93.8509" y2="54.0208" gradientUnits="userSpaceOnUse">
<stop stop-opacity="0"/>
<stop offset="1" stop-color="#00FF65" stop-opacity="0.5"/>
</linearGradient>
<linearGradient id="paint1_linear_31_34" x1="97.9361" y1="74.9571" x2="108.149" y2="92.8296" gradientUnits="userSpaceOnUse">
<stop stop-opacity="0"/>
<stop offset="1" stop-opacity="0.2"/>
</linearGradient>
<linearGradient id="paint2_linear_31_34" x1="88.2339" y1="56.574" x2="54.0208" y2="103.553" gradientUnits="userSpaceOnUse">
<stop stop-opacity="0"/>
<stop offset="1" stop-opacity="0.2"/>
</linearGradient>
<linearGradient id="paint3_linear_31_34" x1="80.0636" y1="79.5529" x2="94.8722" y2="113.766" gradientUnits="userSpaceOnUse">
<stop stop-opacity="0"/>
<stop offset="1" stop-opacity="0.2"/>
</linearGradient>
<linearGradient id="paint4_linear_31_34" x1="101.511" y1="133.17" x2="74.9571" y2="76.489" gradientUnits="userSpaceOnUse">
<stop stop-opacity="0"/>
<stop offset="1" stop-color="#00FF65"/>
</linearGradient>
<linearGradient id="paint5_linear_31_34" x1="190.409" y1="76.9372" x2="191.025" y2="93.559" gradientUnits="userSpaceOnUse">
<stop stop-opacity="0"/>
<stop offset="1"/>
</linearGradient>
<linearGradient id="paint6_linear_31_34" x1="139.893" y1="90.4329" x2="128.294" y2="109.327" gradientUnits="userSpaceOnUse">
<stop stop-opacity="0"/>
<stop offset="1"/>
</linearGradient>
<linearGradient id="paint7_linear_31_34" x1="82.1061" y1="150.021" x2="119.894" y2="166.362" gradientUnits="userSpaceOnUse">
<stop stop-opacity="0"/>
<stop offset="1"/>
</linearGradient>
</defs>
</svg>
