<svg width="250" height="250" viewBox="0 0 250 250" fill="none" xmlns="http://www.w3.org/2000/svg">
<path d="M75.7699 34C74.9782 51.4084 77.2602 90.8056 92.7215 109.127L108.347 108.652C108.97 67.8495 109.711 55.4602 104.979 48.2022C100.066 41.8008 90.0448 37.2423 75.7699 34Z" fill="#4CD482"/>
<path d="M75.7699 34C74.9782 51.4084 77.2602 90.8056 92.7215 109.127L108.347 108.652C108.97 67.8495 109.711 55.4602 104.979 48.2022C100.066 41.8008 90.0448 37.2423 75.7699 34Z" fill="url(#paint0_linear_31_34)" fill-opacity="0.2"/>
<path d="M75.7699 34C74.9782 51.4084 77.2602 90.8056 92.7215 109.127L108.347 108.652C108.97 67.8495 109.711 55.4602 104.979 48.2022C100.066 41.8008 90.0448 37.2423 75.7699 34Z" fill="black" fill-opacity="0.05"/>
<path d="M43 62.1873C52.4221 76.8469 77.0685 107.667 100.278 113.672L112.75 104.248C89.6613 70.6007 83.1005 60.065 75.0422 56.8809C67.3321 54.4999 56.5206 56.5767 43 62.1873Z" fill="#4CD482"/>
<path d="M43 62.1873C52.4221 76.8469 77.0685 107.667 100.278 113.672L112.75 104.248C89.6613 70.6007 83.1005 60.065 75.0422 56.8809C67.3321 54.4999 56.5206 56.5767 43 62.1873Z" fill="url(#paint1_linear_31_34)" fill-opacity="0.2"/>
<rect x="134.651" y="2.60506" width="113.413" height="113.413" rx="15" transform="rotate(20 134.651 2.60506)" fill="#5562E1"/>
<rect x="134.651" y="2.60506" width="113.413" height="113.413" rx="15" transform="rotate(20 134.651 2.60506)" fill="black" fill-opacity="0.06"/>
<path d="M88.4119 85.4358C96.4139 83.2917 104.639 88.0404 106.783 96.0424L124.239 161.189C126.383 169.191 121.635 177.416 113.633 179.561L48.4856 197.017C40.4836 199.161 32.2585 194.412 30.1144 186.41L12.6583 121.263C10.5142 113.261 15.2629 105.036 23.2649 102.892L88.4119 85.4358Z" fill="#5562E1"/>
<path d="M88.4119 85.4358C96.4139 83.2917 104.639 88.0404 106.783 96.0424L124.239 161.189C126.383 169.191 121.635 177.416 113.633 179.561L48.4856 197.017C40.4836 199.161 32.2585 194.412 30.1144 186.41L12.6583 121.263C10.5142 113.261 15.2629 105.036 23.2649 102.892L88.4119 85.4358Z" fill="black" fill-opacity="0.03"/>
<rect x="105.51" y="89.0599" width="129.28" height="129.28" rx="15" transform="rotate(15 105.51 89.0599)" fill="#5562E1"/>
<rect x="186.781" y="124.327" width="30" height="30" rx="5" transform="rotate(25 186.781 124.327)" fill="#F2F3FF"/>
<defs>
<linearGradient id="paint0_linear_31_34" x1="98.8942" y1="38.8706" x2="84.4628" y2="107.387" gradientUnits="userSpaceOnUse">
<stop stop-opacity="0"/>
<stop offset="0.454" stop-color="#71FF7F" stop-opacity="0.5"/>
</linearGradient>
<linearGradient id="paint1_linear_31_34" x1="71.1154" y1="72.4151" x2="132.115" y2="110.415" gradientUnits="userSpaceOnUse">
<stop stop-opacity="0"/>
<stop offset="0.372925" stop-color="#71FF7F"/>
</linearGradient>
</defs>
</svg>
