<svg width="500" height="500" viewBox="0 0 500 500" fill="none" xmlns="http://www.w3.org/2000/svg">
<path d="M140.017 65.3211C138.4 100.879 143.061 181.35 174.642 218.772L206.557 217.802C207.831 134.461 209.344 109.155 199.678 94.3301C189.643 81.2547 169.174 71.9437 140.017 65.3211Z" fill="#4CD482"/>
<path d="M140.017 65.3211C138.4 100.879 143.061 181.35 174.642 218.772L206.557 217.802C207.831 134.461 209.344 109.155 199.678 94.3301C189.643 81.2547 169.174 71.9437 140.017 65.3211Z" fill="url(#paint0_linear_49_15)" fill-opacity="0.2"/>
<path d="M140.017 65.3211C138.4 100.879 143.061 181.35 174.642 218.772L206.557 217.802C207.831 134.461 209.344 109.155 199.678 94.3301C189.643 81.2547 169.174 71.9437 140.017 65.3211Z" fill="black" fill-opacity="0.05"/>
<path d="M73.0822 122.896C92.3274 152.839 142.669 215.792 190.075 228.056L215.551 208.807C168.391 140.08 154.99 118.561 138.531 112.057C122.782 107.193 100.699 111.435 73.0822 122.896Z" fill="#4CD482"/>
<path d="M73.0822 122.896C92.3274 152.839 142.669 215.792 190.075 228.056L215.551 208.807C168.391 140.08 154.99 118.561 138.531 112.057C122.782 107.193 100.699 111.435 73.0822 122.896Z" fill="url(#paint1_linear_49_15)" fill-opacity="0.2"/>
<rect x="248.102" width="231.653" height="231.653" rx="15" transform="rotate(20 248.102 0)" fill="#4E5AD2"/>
<rect x="220.016" y="157.173" width="199.038" height="199.038" rx="15" transform="rotate(75 220.016 157.173)" fill="#515ED7"/>
<rect x="220.016" y="157.173" width="199.038" height="199.038" rx="15" transform="rotate(75 220.016 157.173)" fill="url(#paint2_linear_49_15)" fill-opacity="0.05"/>
<g clip-path="url(#clip0_49_15)">
<rect x="217.175" y="176.59" width="264.063" height="264.063" rx="15" transform="rotate(15 217.175 176.59)" fill="#5562E1"/>
<rect x="393.173" y="253.668" width="50" height="50" rx="5" transform="rotate(25 393.173 253.668)" fill="#F2F3FF"/>
<path d="M183.402 411.762L198.434 355.661L210.257 358.829L195.225 414.93L183.402 411.762ZM220.014 422.483C216.562 421.558 213.683 420.042 211.377 417.933C209.136 415.787 207.6 413.277 206.769 410.404C205.951 407.479 205.977 404.394 206.847 401.149L212.686 379.357L224.509 382.525L218.711 404.162C218.366 405.45 218.276 406.613 218.439 407.65C218.654 408.702 219.131 409.603 219.869 410.352C220.606 411.102 221.593 411.643 222.83 411.974C224.581 412.443 226.117 412.275 227.437 411.469C228.771 410.612 229.701 409.205 230.225 407.247L236.023 385.61L247.846 388.778L242.027 410.492C241.144 413.789 239.617 416.5 237.447 418.624C235.29 420.696 232.705 422.102 229.691 422.84C226.691 423.527 223.465 423.408 220.014 422.483ZM260.686 433.298C257.234 432.374 254.371 430.695 252.096 428.264C249.873 425.846 248.356 422.955 247.546 419.59C246.787 416.24 246.912 412.684 247.919 408.924C248.927 405.163 250.597 402.022 252.929 399.499C255.313 396.991 258.072 395.245 261.206 394.263C264.392 393.295 267.711 393.273 271.163 394.198C273.687 394.874 275.822 395.971 277.569 397.488C279.368 399.019 280.676 400.833 281.495 402.929C282.327 404.975 282.524 407.125 282.085 409.382L277.737 425.61C276.988 427.783 275.736 429.573 273.979 430.98C272.287 432.349 270.279 433.246 267.956 433.673C265.633 434.1 263.21 433.975 260.686 433.298ZM265.938 423.276C268.463 423.953 270.718 423.674 272.706 422.439C274.707 421.154 276.052 419.223 276.742 416.647C277.212 414.895 277.265 413.253 276.903 411.721C276.592 410.202 275.889 408.909 274.795 407.843C273.765 406.739 272.426 405.966 270.778 405.524C269.129 405.082 267.558 405.075 266.063 405.503C264.633 405.893 263.352 406.654 262.221 407.786C261.141 408.933 260.366 410.382 259.897 412.133C259.441 413.833 259.395 415.449 259.757 416.982C260.119 418.515 260.841 419.84 261.922 420.958C263.002 422.076 264.341 422.849 265.938 423.276ZM271.247 435.3L273.96 425.177L278.18 416.535L278.846 406.941L281.31 397.745L292.901 400.851L282.838 438.406L271.247 435.3ZM307.626 445.959C304.175 445.034 301.296 443.517 298.99 441.409C296.749 439.262 295.213 436.752 294.381 433.879C293.564 430.955 293.59 427.87 294.46 424.624L300.298 402.833L312.121 406.001L306.324 427.638C305.979 428.926 305.888 430.088 306.052 431.126C306.267 432.178 306.743 433.078 307.481 433.828C308.219 434.578 309.206 435.118 310.442 435.45C312.194 435.919 313.73 435.751 315.05 434.945C316.384 434.088 317.313 432.68 317.838 430.723L323.635 409.086L335.458 412.254L329.64 433.968C328.756 437.265 327.23 439.975 325.059 442.099C322.903 444.172 320.318 445.577 317.304 446.316C314.304 447.003 311.078 446.884 307.626 445.959Z" fill="white"/>
</g>
<defs>
<linearGradient id="paint0_linear_49_15" x1="187.25" y1="75.2696" x2="157.773" y2="215.219" gradientUnits="userSpaceOnUse">
<stop stop-opacity="0"/>
<stop offset="0.454" stop-color="#71FF7F" stop-opacity="0.5"/>
</linearGradient>
<linearGradient id="paint1_linear_49_15" x1="117.368" y1="103.695" x2="174.259" y2="234.913" gradientUnits="userSpaceOnUse">
<stop stop-opacity="0"/>
<stop offset="0.372925" stop-color="#71FF7F"/>
</linearGradient>
<linearGradient id="paint2_linear_49_15" x1="333.094" y1="252.689" x2="407.119" y2="161.414" gradientUnits="userSpaceOnUse">
<stop stop-opacity="0"/>
<stop offset="1"/>
</linearGradient>
<clipPath id="clip0_49_15">
<rect x="217.175" y="176.59" width="264.063" height="264.063" rx="15" transform="rotate(15 217.175 176.59)" fill="white"/>
</clipPath>
</defs>
</svg>
