<svg width="500" height="500" viewBox="0 0 500 500" fill="none" xmlns="http://www.w3.org/2000/svg">
<path d="M153.064 70.8178C151.505 105.096 155.999 182.67 186.443 218.745L217.209 217.809C218.437 137.469 219.896 113.074 210.578 98.7825C200.904 86.1777 181.172 77.202 153.064 70.8178Z" fill="#2DDD73"/>
<path d="M153.064 70.8178C151.505 105.096 155.999 182.67 186.443 218.745L217.209 217.809C218.437 137.469 219.896 113.074 210.578 98.7825C200.904 86.1777 181.172 77.202 153.064 70.8178Z" fill="url(#paint0_linear_62_97)" fill-opacity="0.2"/>
<path d="M153.064 70.8178C151.505 105.096 155.999 182.67 186.443 218.745L217.209 217.809C218.437 137.469 219.896 113.074 210.578 98.7825C200.904 86.1777 181.172 77.202 153.064 70.8178Z" fill="url(#paint1_linear_62_97)"/>
<path d="M153.064 70.8178C151.505 105.096 155.999 182.67 186.443 218.745L217.209 217.809C218.437 137.469 219.896 113.074 210.578 98.7825C200.904 86.1777 181.172 77.202 153.064 70.8178Z" fill="url(#paint2_linear_62_97)"/>
<path d="M88.5391 126.32C107.092 155.185 155.621 215.871 201.321 227.694L225.879 209.138C180.417 142.886 167.498 122.141 151.631 115.871C136.45 111.183 115.162 115.272 88.5391 126.32Z" fill="#2DDD73"/>
<path d="M88.5391 126.32C107.092 155.185 155.621 215.871 201.321 227.694L225.879 209.138C180.417 142.886 167.498 122.141 151.631 115.871C136.45 111.183 115.162 115.272 88.5391 126.32Z" fill="url(#paint3_linear_62_97)"/>
<path d="M88.5391 126.32C107.092 155.185 155.621 215.871 201.321 227.694L225.879 209.138C180.417 142.886 167.498 122.141 151.631 115.871C136.45 111.183 115.162 115.272 88.5391 126.32Z" fill="url(#paint4_linear_62_97)" fill-opacity="0.2"/>
<rect x="269.003" y="9" width="223.314" height="223.314" rx="30" transform="rotate(20 269.003 9)" fill="#5F62FF"/>
<rect x="269.003" y="9" width="223.314" height="223.314" rx="30" transform="rotate(20 269.003 9)" fill="black" fill-opacity="0.05"/>
<rect x="269.003" y="9" width="223.314" height="223.314" rx="30" transform="rotate(20 269.003 9)" fill="url(#paint5_linear_62_97)" fill-opacity="0.06"/>
<rect x="269.003" y="9" width="223.314" height="223.314" rx="30" transform="rotate(20 269.003 9)" fill="url(#paint6_linear_62_97)" fill-opacity="0.06"/>
<path d="M148.53 179.982C175.851 172.661 189.511 169.001 200.273 175.214C211.034 181.427 214.694 195.087 222.015 222.408L240.617 291.832C247.938 319.152 251.598 332.813 245.385 343.574C239.171 354.336 225.511 357.996 198.191 365.316L128.767 383.919C101.446 391.239 87.7861 394.899 77.0245 388.686C66.2629 382.473 62.6026 368.813 55.2821 341.492L36.68 272.068C29.3595 244.748 25.6993 231.088 31.9125 220.326C38.1257 209.564 51.786 205.904 79.1065 198.584L148.53 179.982Z" fill="#5F62FF"/>
<path d="M148.53 179.982C175.851 172.661 189.511 169.001 200.273 175.214C211.034 181.427 214.694 195.087 222.015 222.408L240.617 291.832C247.938 319.152 251.598 332.813 245.385 343.574C239.171 354.336 225.511 357.996 198.191 365.316L128.767 383.919C101.446 391.239 87.7861 394.899 77.0245 388.686C66.2629 382.473 62.6026 368.813 55.2821 341.492L36.68 272.068C29.3595 244.748 25.6993 231.088 31.9125 220.326C38.1257 209.564 51.786 205.904 79.1065 198.584L148.53 179.982Z" fill="black" fill-opacity="0.03"/>
<path d="M148.53 179.982C175.851 172.661 189.511 169.001 200.273 175.214C211.034 181.427 214.694 195.087 222.015 222.408L240.617 291.832C247.938 319.152 251.598 332.813 245.385 343.574C239.171 354.336 225.511 357.996 198.191 365.316L128.767 383.919C101.446 391.239 87.7861 394.899 77.0245 388.686C66.2629 382.473 62.6026 368.813 55.2821 341.492L36.68 272.068C29.3595 244.748 25.6993 231.088 31.9125 220.326C38.1257 209.564 51.786 205.904 79.1065 198.584L148.53 179.982Z" fill="url(#paint7_linear_62_97)" fill-opacity="0.06"/>
<rect x="213.592" y="179.233" width="254.557" height="254.557" rx="30" transform="rotate(15 213.592 179.233)" fill="#5F62FF"/>
<rect x="377.814" y="252.224" width="50" height="50" rx="10" transform="rotate(26.25 377.814 252.224)" fill="white"/>
<path d="M186.468 405.937L201.5 349.836L213.323 353.004L198.291 409.105L186.468 405.937ZM223.08 416.659C219.629 415.734 216.75 414.217 214.444 412.108C212.203 409.962 210.667 407.452 209.835 404.579C209.018 401.654 209.044 398.569 209.913 395.324L215.752 373.533L227.575 376.7L221.778 398.337C221.433 399.625 221.342 400.788 221.506 401.826C221.721 402.877 222.197 403.778 222.935 404.528C223.673 405.278 224.66 405.818 225.896 406.149C227.648 406.619 229.184 406.45 230.504 405.645C231.838 404.787 232.767 403.38 233.292 401.422L239.089 379.786L250.912 382.954L245.094 404.668C244.21 407.965 242.684 410.675 240.513 412.799C238.357 414.872 235.771 416.277 232.758 417.015C229.758 417.702 226.532 417.583 223.08 416.659ZM263.752 427.474C260.3 426.549 257.437 424.871 255.162 422.439C252.939 420.021 251.422 417.13 250.612 413.766C249.853 410.415 249.978 406.86 250.986 403.099C251.993 399.338 253.663 396.197 255.995 393.675C258.379 391.166 261.138 389.421 264.273 388.438C267.459 387.47 270.777 387.448 274.229 388.373C276.753 389.049 278.889 390.146 280.636 391.663C282.434 393.194 283.742 395.008 284.561 397.105C285.393 399.15 285.59 401.301 285.151 403.557L280.803 419.785C280.055 421.959 278.802 423.749 277.045 425.155C275.353 426.524 273.346 427.422 271.023 427.848C268.7 428.275 266.276 428.15 263.752 427.474ZM269.005 417.452C271.529 418.128 273.785 417.849 275.772 416.615C277.773 415.329 279.119 413.398 279.809 410.822C280.278 409.071 280.332 407.429 279.969 405.896C279.658 404.377 278.956 403.084 277.861 402.018C276.832 400.914 275.493 400.141 273.844 399.699C272.196 399.258 270.624 399.251 269.129 399.678C267.699 400.068 266.419 400.829 265.287 401.962C264.207 403.108 263.432 404.557 262.963 406.308C262.508 408.008 262.461 409.625 262.823 411.157C263.186 412.69 263.907 414.015 264.988 415.133C266.069 416.251 267.408 417.024 269.005 417.452ZM274.314 429.476L277.026 419.353L281.247 410.711L281.913 401.116L284.377 391.92L295.968 395.026L285.905 432.581L274.314 429.476ZM310.693 440.134C307.241 439.209 304.362 437.693 302.056 435.584C299.815 433.438 298.279 430.928 297.448 428.055C296.63 425.13 296.656 422.045 297.526 418.8L303.365 397.008L315.188 400.176L309.39 421.813C309.045 423.101 308.954 424.264 309.118 425.301C309.333 426.353 309.81 427.254 310.547 428.003C311.285 428.753 312.272 429.294 313.509 429.625C315.26 430.094 316.796 429.926 318.116 429.12C319.45 428.263 320.38 426.856 320.904 424.898L326.702 403.261L338.525 406.429L332.706 428.143C331.823 431.44 330.296 434.151 328.126 436.275C325.969 438.347 323.384 439.753 320.37 440.491C317.37 441.178 314.144 441.059 310.693 440.134Z" fill="white"/>
<defs>
<linearGradient id="paint0_linear_62_97" x1="218.495" y1="194.867" x2="189.944" y2="113.152" gradientUnits="userSpaceOnUse">
<stop stop-opacity="0"/>
<stop offset="1" stop-color="#00FF65" stop-opacity="0.5"/>
</linearGradient>
<linearGradient id="paint1_linear_62_97" x1="197.821" y1="153.517" x2="217.511" y2="187.975" gradientUnits="userSpaceOnUse">
<stop stop-opacity="0"/>
<stop offset="1" stop-opacity="0.2"/>
</linearGradient>
<linearGradient id="paint2_linear_62_97" x1="179.115" y1="118.075" x2="113.152" y2="208.65" gradientUnits="userSpaceOnUse">
<stop stop-opacity="0"/>
<stop offset="1" stop-opacity="0.2"/>
</linearGradient>
<linearGradient id="paint3_linear_62_97" x1="163.362" y1="162.378" x2="191.913" y2="228.341" gradientUnits="userSpaceOnUse">
<stop stop-opacity="0"/>
<stop offset="1" stop-opacity="0.2"/>
</linearGradient>
<linearGradient id="paint4_linear_62_97" x1="204.712" y1="265.752" x2="153.517" y2="156.471" gradientUnits="userSpaceOnUse">
<stop stop-opacity="0"/>
<stop offset="1" stop-color="#00FF65"/>
</linearGradient>
<linearGradient id="paint5_linear_62_97" x1="376.109" y1="157.335" x2="377.296" y2="189.382" gradientUnits="userSpaceOnUse">
<stop stop-opacity="0"/>
<stop offset="1"/>
</linearGradient>
<linearGradient id="paint6_linear_62_97" x1="278.714" y1="183.355" x2="256.351" y2="219.782" gradientUnits="userSpaceOnUse">
<stop stop-opacity="0"/>
<stop offset="1"/>
</linearGradient>
<linearGradient id="paint7_linear_62_97" x1="167.301" y1="298.241" x2="240.155" y2="329.746" gradientUnits="userSpaceOnUse">
<stop stop-opacity="0"/>
<stop offset="1"/>
</linearGradient>
</defs>
</svg>
